HIERARCHY
ROOT Hips
{
	OFFSET 0.000000 0.000000 0.000000
	CHANNELS 6 Xposition Yposition Zposition Xrotation Yrotation Zrotation
	JOINT LeftUpLeg_virtual
	{
		OFFSET 0.000000 0.000000 0.000000
		CHANNELS 3 Xrotation Yrotation Zrotation
		JOINT LeftUpLeg
		{
			OFFSET 13.026900 -6.336304 -1.092800
			CHANNELS 3 Xrotation Yrotation Zrotation
			JOINT LeftLeg
			{
				OFFSET 0.524474 -46.096886 9.782700
				CHANNELS 3 Xrotation Yrotation Zrotation
				JOINT LeftFoot
				{
					OFFSET -0.524474 -53.427422 -12.948200
					CHANNELS 3 Xrotation Yrotation Zrotation
					JOINT LeftToeBase
					{
						OFFSET 0.192200 -14.009700 16.364100
						CHANNELS 3 Xrotation Yrotation Zrotation
						JOINT LeftToe_End
						{
							OFFSET -1.784700 -0.561700 9.474800
							CHANNELS 3 Xrotation Yrotation Zrotation
							End Site
							{
								OFFSET 0 0 0
							}
						}
					}
				}
			}
		}
	}
	JOINT RightUpLeg_virtual
	{
		OFFSET 0.000000 0.000000 0.000000
		CHANNELS 3 Xrotation Yrotation Zrotation
		JOINT RightUpLeg
		{
			OFFSET -12.883000 -6.336304 -1.092800
			CHANNELS 3 Xrotation Yrotation Zrotation
			JOINT RightLeg
			{
				OFFSET -0.524587 -46.096825 9.782800
				CHANNELS 3 Xrotation Yrotation Zrotation
				JOINT RightFoot
				{
					OFFSET 0.524587 -53.427383 -12.948300
					CHANNELS 3 Xrotation Yrotation Zrotation
					JOINT RightToeBase
					{
						OFFSET -0.192200 -14.009700 16.364100
						CHANNELS 3 Xrotation Yrotation Zrotation
						JOINT RightToe_End
						{
							OFFSET 1.784700 -0.561700 9.474800
							CHANNELS 3 Xrotation Yrotation Zrotation
							End Site
							{
								OFFSET 0 0 0
							}
						}
					}
				}
			}
		}
	}
	JOINT Spine_virtual
	{
		OFFSET 0.000000 0.000000 0.000000
		CHANNELS 3 Xrotation Yrotation Zrotation
		JOINT Spine
		{
			OFFSET 0.072000 7.257294 -0.789700
			CHANNELS 3 Xrotation Yrotation Zrotation
			JOINT Spine1
			{
				OFFSET 0.000000 12.508769 -0.658067
				CHANNELS 3 Xrotation Yrotation Zrotation
				JOINT Spine1_split
				{
					OFFSET 0.000000 12.508769 -0.658067
					CHANNELS 3 Xrotation Yrotation Zrotation
					JOINT Spine2
					{
						OFFSET 0.000000 12.508769 -0.658067
						CHANNELS 3 Xrotation Yrotation Zrotation
						JOINT Neck_virtual
						{
							OFFSET 0.000000 0.000000 0.000000
							CHANNELS 3 Xrotation Yrotation Zrotation
							JOINT Neck
							{
								OFFSET 0.000000 14.033295 7.520400
								CHANNELS 3 Xrotation Yrotation Zrotation
								JOINT Head
								{
									OFFSET 0.000000 8.198502 5.703100
									CHANNELS 3 Xrotation Yrotation Zrotation
									JOINT HeadTop_End
									{
										OFFSET 0.000000 17.760803 13.332701
										CHANNELS 3 Xrotation Yrotation Zrotation
										End Site
										{
											OFFSET 0 0 0
										}
									}
								}
							}
						}
						JOINT LeftShoulder_virtual
						{
							OFFSET 0.000000 0.000000 0.000000
							CHANNELS 3 Xrotation Yrotation Zrotation
							JOINT LeftShoulder
							{
								OFFSET 6.292450 5.785301 -0.669000
								CHANNELS 3 Xrotation Yrotation Zrotation
								JOINT LeftShoulder_split
								{
									OFFSET 6.292450 5.785301 -0.669000
									CHANNELS 3 Xrotation Yrotation Zrotation
									JOINT LeftArm
									{
										OFFSET 13.907140 -6.093903 1.965100
										CHANNELS 3 Xrotation Yrotation Zrotation
										JOINT LeftForeArm
										{
											OFFSET 34.140198 0.000000 0.000000
											CHANNELS 3 Xrotation Yrotation Zrotation
											JOINT LeftHand
											{
												OFFSET 40.960209 0.000000 0.000000
												CHANNELS 3 Xrotation Yrotation Zrotation
												End Site
												{
													OFFSET 0 0 0
												}
											}
										}
									}
								}
							}
						}
						JOINT RightShoulder_virtual
						{
							OFFSET 0.000000 0.000000 0.000000
							CHANNELS 3 Xrotation Yrotation Zrotation
							JOINT RightShoulder
							{
								OFFSET -6.292450 5.785301 -0.669000
								CHANNELS 3 Xrotation Yrotation Zrotation
								JOINT RightShoulder_split
								{
									OFFSET -6.292450 5.785301 -0.669000
									CHANNELS 3 Xrotation Yrotation Zrotation
									JOINT RightArm
									{
										OFFSET -13.907140 -6.093903 1.965100
										CHANNELS 3 Xrotation Yrotation Zrotation
										JOINT RightForeArm
										{
											OFFSET -34.140198 0.000000 0.000000
											CHANNELS 3 Xrotation Yrotation Zrotation
											JOINT RightHand
											{
												OFFSET -40.960209 0.000000 0.000000
												CHANNELS 3 Xrotation Yrotation Zrotation
												End Site
												{
													OFFSET 0 0 0
												}
											}
										}
									}
								}
							}
						}
					}
				}
			}
		}
	}
}
MOTION
Frames: 7
Frame Time: 0.03333333
6.061589 92.788422 -0.869490 0.000000 0.000000 0.000000 3.884199 6.441316 -3.208513 12.696080 20.288438 14.779264 36.394540 7.435670 -3.760471 -21.559507 11.265571 -10.615594 -24.990294 -2.058447 1.020786 0.000000 0.000000 0.000000 3.273376 5.255835 -3.412661 -59.874968 13.737146 -1.596734 59.802678 -5.157796 2.592621 0.362285 -4.304010 13.507205 0.619800 5.507010 -8.816109 0.000000 0.000000 0.000000 3.697957 8.776032 -1.738885 1.537681 -3.857782 -0.459056 5.590512 -5.014611 2.483638 -0.097642 -0.344328 -0.321139 0.000000 0.000000 0.000000 5.005081 -3.221152 3.513911 -3.471458 7.682031 -6.316536 -16.186983 -25.553572 -27.108690 0.000000 0.000000 0.000000 5.530812 -5.086027 1.861978 0.475538 4.154087 2.924661 -1.046684 0.854108 2.570889 -15.491494 6.452859 -59.777180 133.426106 -73.587420 126.740280 0.000000 0.000000 0.000000 6.022259 -4.294175 3.415891 -2.766985 -5.552850 12.507364 -0.471159 4.563131 2.085409 -9.871060 -7.917636 61.955642 -175.672739 56.371143 -176.416314 0.000000 0.000000 0.000000 
5.574131 95.008926 -0.922377 0.000000 0.000000 0.000000 4.068952 7.246160 -3.071409 10.221002 17.317178 15.940838 38.286400 8.289391 -4.364281 -13.716671 11.463200 -8.751951 -22.641719 -1.652511 0.184095 0.000000 0.000000 0.000000 3.116921 6.469689 -3.245399 -57.326037 13.101315 -2.568383 56.136881 -5.620353 2.603383 1.532062 -4.260082 14.614587 -1.894120 5.726809 -8.422733 0.000000 0.000000 0.000000 3.437651 9.444024 -2.123414 1.176656 -3.771023 0.368622 5.599499 -4.952584 2.467610 -0.249761 0.092095 -0.202147 0.000000 0.000000 0.000000 4.780694 -3.214671 3.298380 -3.393011 7.653142 -6.227755 -15.595938 -25.412050 -27.027894 0.000000 0.000000 0.000000 5.755464 -5.015283 1.917582 0.538203 2.445875 3.550989 0.521968 -1.556611 3.092906 -20.166245 4.693913 -59.604472 136.172143 -73.050294 129.811283 0.000000 0.000000 0.000000 6.357144 -4.195680 3.165685 -2.964533 -5.091948 11.338494 -1.546278 5.166589 0.368084 -13.595632 -6.387548 62.846305 -176.123285 52.345702 -177.023026 0.000000 0.000000 0.000000 
5.023822 98.508995 -0.701536 0.000000 0.000000 0.000000 3.814384 9.506199 -3.045069 4.750464 13.864981 16.783884 40.457854 9.652340 -4.543324 -1.591642 10.760603 -7.444026 -20.913174 -0.811069 -2.412448 0.000000 0.000000 0.000000 3.275812 8.741245 -3.275194 -52.445474 12.245079 -3.136377 48.786624 -7.109110 2.505073 2.498565 -5.544806 13.324520 -2.175151 5.787337 -6.989438 0.000000 0.000000 0.000000 3.214932 11.096384 -2.615529 0.713495 -3.607355 1.761394 5.731096 -4.953228 2.136780 -0.149572 0.481835 -0.015072 0.000000 0.000000 0.000000 4.719400 -3.144444 2.742156 -2.770842 7.510602 -5.713026 -14.055604 -25.167389 -25.917262 0.000000 0.000000 0.000000 6.161065 -4.872883 1.769266 0.654098 0.041792 3.555344 2.289278 -2.791112 2.319736 -27.608883 0.746598 -58.231748 140.416627 -73.469545 134.531859 0.000000 0.000000 0.000000 6.903592 -4.113989 2.617802 -3.112467 -5.020808 9.008550 -1.605915 3.421223 -0.309748 -20.948228 -1.814669 63.007436 -175.515890 51.659145 -178.817180 0.000000 0.000000 0.000000 
4.975209 102.311417 -0.567530 0.000000 0.000000 0.000000 3.276053 11.987243 -3.141229 -3.246900 10.693940 17.118131 43.637741 10.598874 -4.283842 12.638538 8.513247 -7.742850 -24.293892 0.322412 -5.180315 0.000000 0.000000 0.000000 3.279197 11.177555 -3.419852 -46.749356 10.998674 -3.199755 40.599112 -8.992932 2.295248 4.046207 -7.628993 10.610907 -1.562333 5.769457 -5.053006 0.000000 0.000000 0.000000 3.009806 13.383608 -2.899231 0.242279 -3.409346 3.328304 6.042453 -5.005964 1.652022 0.039766 0.710472 0.120037 0.000000 0.000000 0.000000 4.955916 -3.007696 2.082674 -1.788136 7.366809 -4.769776 -12.004433 -24.492814 -24.263219 0.000000 0.000000 0.000000 6.694653 -4.694760 1.570375 0.707705 -2.628981 3.120058 3.507704 -2.422053 1.147108 -36.798392 -4.684156 -56.507292 143.088939 -75.316605 137.776336 0.000000 0.000000 0.000000 7.584462 -4.079383 1.987871 -3.280267 -5.308177 5.866914 -0.874320 0.919656 -0.089710 -30.598281 4.480931 63.370727 -173.556131 54.731686 178.177055 0.000000 0.000000 0.000000 
5.177523 105.550224 -0.075224 0.000000 0.000000 0.000000 2.305531 14.025251 -2.942110 -13.220248 7.725676 16.646636 49.287994 10.433062 -3.439567 25.898995 4.488235 -9.078567 -31.584069 1.596903 -6.869065 0.000000 0.000000 0.000000 2.810487 13.433260 -3.423097 -42.236380 9.241301 -2.855873 34.706206 -10.068785 2.092363 6.413601 -9.245564 8.677179 -2.545798 5.802225 -3.315866 0.000000 0.000000 0.000000 2.655405 16.060918 -2.687496 -0.030245 -3.191587 4.579221 6.575183 -5.058608 1.219019 0.185713 0.648682 0.139878 0.000000 0.000000 0.000000 5.569747 -2.840221 1.596387 -0.763120 7.253030 -3.435172 -10.061138 -23.075249 -22.734114 0.000000 0.000000 0.000000 7.278612 -4.518368 1.474939 0.651982 -5.096145 2.799465 4.045048 -1.085641 0.050560 -46.920319 -11.008351 -55.205940 140.685136 -78.944542 136.075700 0.000000 0.000000 0.000000 8.196474 -4.100344 1.516543 -3.580660 -5.840829 2.228515 -0.439724 -1.120374 0.265820 -41.412854 10.736638 64.363290 -168.528853 61.627048 172.492097 0.000000 0.000000 0.000000 
5.460326 107.561485 1.106386 0.000000 0.000000 0.000000 0.794237 15.800908 -2.303625 -24.758819 5.567520 15.067681 58.684487 10.213315 -2.773306 34.143330 0.666583 -9.234209 -35.391110 2.533755 -8.064456 0.000000 0.000000 0.000000 1.576088 15.187745 -2.996349 -39.561747 7.136987 -2.283643 32.815176 -9.599538 2.004378 8.403891 -9.533203 8.149907 -5.086713 5.820124 -2.258017 0.000000 0.000000 0.000000 1.678888 18.416900 -2.062807 0.157416 -2.940431 5.139530 7.223750 -5.046934 0.986997 0.210800 0.380322 0.057183 0.000000 0.000000 0.000000 6.495669 -2.664044 1.455279 -0.000412 7.181131 -1.807439 -8.671583 -20.879376 -21.829807 0.000000 0.000000 0.000000 7.871046 -4.326768 1.614059 0.524274 -6.856292 3.065780 4.296209 0.226252 -0.568615 -56.795588 -16.897868 -54.939193 121.277139 -83.604200 117.483325 0.000000 0.000000 0.000000 8.664362 -4.162565 1.358593 -4.081462 -6.498464 -1.737212 -0.591283 -2.467153 0.379023 -52.099074 15.308877 65.857989 -154.682857 71.107993 158.663341 0.000000 0.000000 0.000000 
5.888589 107.956444 2.078526 0.000000 0.000000 0.000000 -1.082694 17.269959 -1.195798 -36.286261 4.590598 12.623719 69.759085 10.600561 -2.511627 35.643844 -1.193408 -7.810647 -33.379544 2.636261 -8.536665 0.000000 0.000000 0.000000 -0.415628 16.222406 -1.869010 -38.370876 4.873936 -1.909286 34.927555 -7.539539 2.012160 8.280096 -8.313973 8.245698 -6.586865 5.793827 -2.073246 0.000000 0.000000 0.000000 -0.127562 19.790126 -1.179632 0.959312 -2.556699 4.882776 7.915064 -4.892857 1.047865 0.078564 0.173126 -0.068396 0.000000 0.000000 0.000000 7.555811 -2.462740 1.673597 0.437263 7.154558 -0.042871 -7.691321 -18.171322 -21.643650 0.000000 0.000000 0.000000 8.442359 -4.080934 1.987726 0.528127 -7.631157 4.359972 3.967545 0.817598 -0.669474 -66.070783 -21.338433 -55.736318 53.203250 -84.620942 50.319318 0.000000 0.000000 0.000000 8.931330 -4.202741 1.459297 -4.813186 -7.123766 -6.017300 -0.991674 -2.857302 -0.101812 -61.908664 17.151363 67.168367 -112.214052 78.139188 116.896201 0.000000 0.000000 0.000000 
